<svg xmlns="http://www.w3.org/2000/svg" xmlns:xlink="http://www.w3.org/1999/xlink" width="429" height="344.679" viewBox="0 0 429 344.679">
  <defs>
    <linearGradient id="linear-gradient" x1="0.029" y1="1.196" x2="1.029" y2="1.196" gradientUnits="objectBoundingBox">
      <stop offset="0" stop-color="#241b00"/>
      <stop offset="1" stop-color="#e60012"/>
    </linearGradient>
  </defs>
  <g id="logo02" transform="translate(-1063 -465)">
    <g id="グループ_8" data-name="グループ 8" transform="translate(1049 465)">
      <path id="パス_69" data-name="パス 69" d="M143.651,341.761A59.788,59.788,0,0,1,101.374,239.7L217.2,125.371a59.854,59.854,0,0,1,84.553,0l40.618,40.616,67.721-67.721a59.788,59.788,0,0,1,84.553,84.553l-110,110a59.856,59.856,0,0,1-84.553,0L259.48,252.2l-73.554,72.048A59.4,59.4,0,0,1,143.651,341.761Z" transform="translate(-69.315 -80.784)" fill="url(#linear-gradient)"/>
      <g id="グループ_7" data-name="グループ 7" transform="translate(14 302.326)">
        <path id="パス_70" data-name="パス 70" d="M97.023,283.352h5.951v39.811h-5.6L79.978,294.157v29.006H74.026V283.352H79.8l17.219,28.774Z" transform="translate(-74.026 -281.503)"/>
        <path id="パス_71" data-name="パス 71" d="M100.845,303.536c0-11.325,8.783-20.686,20.107-20.686a20.6,20.6,0,1,1-20.107,20.686Zm34.378,0c0-8.2-6.125-15.138-14.271-15.138-8.09,0-14.156,6.934-14.156,15.138,0,8.146,6.067,14.964,14.156,14.964C129.1,318.5,135.223,311.682,135.223,303.536Z" transform="translate(-63.809 -281.694)"/>
        <path id="パス_72" data-name="パス 72" d="M156.591,323.163l-10.228-14.85h-4.506v14.85H135.9V283.352h15.2c8.725,0,12.249,6.3,12.249,12.6,0,5.72-3.466,11.73-10.112,12.365l10.458,14.85Zm-14.734-34.379v14.329h7.8c5.489,0,7.743-2.947,7.743-7.165,0-4.16-2.486-7.164-6.357-7.164Z" transform="translate(-50.451 -281.503)"/>
        <path id="パス_73" data-name="パス 73" d="M188.255,323.163l-3.7-10.055H167.976l-3.7,10.055h-6.239l15.08-39.811h6.355L194.5,323.163Zm-18.373-15.254h12.768L176.3,290.574Z" transform="translate(-42.019 -281.503)"/>
        <path id="パス_74" data-name="パス 74" d="M211.324,283.352h5.952v39.811h-5.605L194.28,294.157v29.006h-5.952V283.352h5.778l17.218,28.774Z" transform="translate(-30.479 -281.503)"/>
        <path id="パス_75" data-name="パス 75" d="M222.965,317.731h18.49v5.431H217.071V283.352h23.863v5.431H222.965V300.86h15.658v5.488H222.965Z" transform="translate(-19.529 -281.503)"/>
        <path id="パス_76" data-name="パス 76" d="M269.7,323.163h-7.858l-15.195-16.757v16.757h-5.894V283.352h5.894v17.1l12.769-17.1h7.223l-14.964,19.934Z" transform="translate(-10.507 -281.503)"/>
        <path id="パス_77" data-name="パス 77" d="M263.177,303.536c0-11.325,8.783-20.686,20.107-20.686a20.6,20.6,0,1,1-20.107,20.686Zm34.378,0c0-8.2-6.125-15.138-14.271-15.138-8.09,0-14.156,6.934-14.156,15.138,0,8.146,6.067,14.964,14.156,14.964C291.43,318.5,297.555,311.682,297.555,303.536Z" transform="translate(-1.964 -281.694)"/>
        <path id="パス_78" data-name="パス 78" d="M296.647,310.889a4.021,4.021,0,1,1,3.987,3.813A3.886,3.886,0,0,1,296.647,310.889Z" transform="translate(10.788 -272.465)"/>
        <path id="パス_79" data-name="パス 79" d="M322.229,295.43v4.737h-5.778v22.246h-5.662V300.167h-4.854V295.43h4.854V285.319h5.662V295.43Z" transform="translate(14.326 -280.753)"/>
        <path id="パス_80" data-name="パス 80" d="M347.741,308.606H326.247c.751,4.392,3.986,6.645,8.32,6.645a8.8,8.8,0,0,0,7.626-3.93l4.508,2.254c-2.37,4.506-7.223,6.934-12.365,6.934-7.8,0-13.924-5.72-13.924-14.272s6.239-14.1,13.924-14.1,13.521,5.546,13.521,14.04C347.857,306.931,347.8,307.739,347.741,308.606Zm-5.547-4.565c-.577-4.217-3.64-6.644-7.8-6.644s-7.281,2.138-8.09,6.644Z" transform="translate(19.841 -278.155)"/>
        <path id="パス_81" data-name="パス 81" d="M343.8,306.294c0-8.551,6.76-14.155,14.561-14.155a13.532,13.532,0,0,1,10.516,4.622l-3.756,3.524a8.865,8.865,0,0,0-6.645-2.831,8.87,8.87,0,1,0,0,17.739,8.862,8.862,0,0,0,6.645-2.832l3.756,3.524a13.529,13.529,0,0,1-10.516,4.624C350.558,320.508,343.8,314.846,343.8,306.294Z" transform="translate(28.751 -278.155)"/>
        <path id="パス_82" data-name="パス 82" d="M391.641,308.245v15.428h-5.663v-15.08c0-4.392-2.657-7.05-6.125-7.05-3.524,0-7.8,2.08-7.8,7.627v14.5h-5.662v-41.66h5.662v18.779c1.561-3.292,5.894-4.795,8.783-4.795C387.654,296,391.7,300.561,391.641,308.245Z" transform="translate(37.359 -282.013)"/>
      </g>
    </g>
  </g>
</svg>
